# xmcd
#
# Track frame offsets:
#	150
#	15809
#	32388
#	52695
#	67002
#	85987
#	104014
#	126458
#	153617
#	186307
#
# Disc length: 2646 seconds
#
# Revision: 1
# Processed by: cddbd v1.5.1PL2 Copyright (c) Steve Scherf et al.
# Submitted via: EasyCDDAExtractor 9.0.0.1
#
DISCID=7d0a540a
DTITLE=Motörhead - Volkhaus Zurich 11-12-82
DYEAR=1982
DGENRE=Hard Rock
TTITLE0=Iron Fist
TTITLE1=Heart Of Stone
TTITLE2=Turn You Down Again
TTITLE3=Shoot You In The Back
TTITLE4=Iron Horse - Born To Loose
TTITLE5=Nadine
TTITLE6=America
TTITLE7=I Got Mine
TTITLE8=Hoochie Coochie Man
TTITLE9=I Don't Need Religion
EXTD=
EXTT0=
EXTT1=
EXTT2=
EXTT3=
EXTT4=
EXTT5=
EXTT6=
EXTT7=
EXTT8=
EXTT9=
PLAYORDER=
